<svg width="1500" height="1500" viewBox="0 0 1500 1500" fill="none" xmlns="http://www.w3.org/2000/svg">
<g clip-path="url(#clip0_203_9)">
<mask id="path-1-outside-1_203_9" maskUnits="userSpaceOnUse" x="373" y="134" width="562" height="828" fill="black">
<rect fill="white" x="373" y="134" width="562" height="828"/>
<path d="M395.407 883.53C375.951 865.909 370.812 850.491 379.989 837.276L408.623 795.977C418.535 781.66 434.503 782.762 456.529 799.281C485.53 820.94 515.632 838.744 546.835 852.694C578.406 866.644 616.584 873.618 661.37 873.618C694.409 873.618 722.308 868.663 745.068 858.751C767.828 848.839 786 834.706 799.582 816.351C813.532 797.629 820.507 775.053 820.507 748.622C820.507 729.532 817.57 711.912 811.697 695.759C806.19 679.24 797.196 665.474 784.715 654.461C772.234 643.448 759.202 634.821 745.619 628.58C723.226 618.302 689.637 606.371 644.851 592.788C600.432 579.206 561.519 564.522 528.113 548.737C495.075 532.951 468.644 513.862 448.82 491.469C429.364 469.076 416.332 446.133 409.724 422.638C403.484 398.777 400.363 371.612 400.363 341.143C400.363 294.521 413.946 254.324 441.111 220.551C468.276 186.778 501.499 164.385 540.778 153.372C580.425 142.359 620.622 136.853 661.37 136.853C707.991 136.853 748.556 142.91 783.063 155.024C817.57 167.138 848.407 182.923 875.572 202.38C894.661 215.962 899.066 230.279 888.787 245.33L860.704 285.527C852.261 297.641 835.742 295.072 811.146 277.818C792.424 264.603 769.48 252.305 742.315 240.925C715.517 229.178 688.902 223.304 662.471 223.304C628.698 223.304 600.615 227.342 578.222 235.418C555.829 243.127 538.209 256.343 525.36 275.065C512.512 293.787 506.088 315.446 506.088 340.041C506.088 355.459 507.556 369.776 510.493 382.992C513.429 395.84 520.955 409.056 533.069 422.638C545.183 436.221 559.867 446.683 577.121 454.025C600.248 463.937 636.04 475.684 684.497 489.267C733.321 502.482 775.905 518.818 812.247 538.274C846.02 556.262 870.249 575.168 884.933 594.991C899.984 614.447 911.547 635.739 919.624 658.866C928.067 681.626 932.288 707.323 932.288 735.957C932.288 788.085 918.889 831.586 892.091 866.46C865.293 901.334 833.539 925.563 796.829 939.145C760.119 952.728 714.049 959.519 658.617 959.519C592.172 959.519 537.107 951.81 493.423 936.392C449.738 920.974 417.066 903.353 395.407 883.53Z"/>
</mask>
<path d="M395.407 883.53C375.951 865.909 370.812 850.491 379.989 837.276L408.623 795.977C418.535 781.66 434.503 782.762 456.529 799.281C485.53 820.94 515.632 838.744 546.835 852.694C578.406 866.644 616.584 873.618 661.37 873.618C694.409 873.618 722.308 868.663 745.068 858.751C767.828 848.839 786 834.706 799.582 816.351C813.532 797.629 820.507 775.053 820.507 748.622C820.507 729.532 817.57 711.912 811.697 695.759C806.19 679.24 797.196 665.474 784.715 654.461C772.234 643.448 759.202 634.821 745.619 628.58C723.226 618.302 689.637 606.371 644.851 592.788C600.432 579.206 561.519 564.522 528.113 548.737C495.075 532.951 468.644 513.862 448.82 491.469C429.364 469.076 416.332 446.133 409.724 422.638C403.484 398.777 400.363 371.612 400.363 341.143C400.363 294.521 413.946 254.324 441.111 220.551C468.276 186.778 501.499 164.385 540.778 153.372C580.425 142.359 620.622 136.853 661.37 136.853C707.991 136.853 748.556 142.91 783.063 155.024C817.57 167.138 848.407 182.923 875.572 202.38C894.661 215.962 899.066 230.279 888.787 245.33L860.704 285.527C852.261 297.641 835.742 295.072 811.146 277.818C792.424 264.603 769.48 252.305 742.315 240.925C715.517 229.178 688.902 223.304 662.471 223.304C628.698 223.304 600.615 227.342 578.222 235.418C555.829 243.127 538.209 256.343 525.36 275.065C512.512 293.787 506.088 315.446 506.088 340.041C506.088 355.459 507.556 369.776 510.493 382.992C513.429 395.84 520.955 409.056 533.069 422.638C545.183 436.221 559.867 446.683 577.121 454.025C600.248 463.937 636.04 475.684 684.497 489.267C733.321 502.482 775.905 518.818 812.247 538.274C846.02 556.262 870.249 575.168 884.933 594.991C899.984 614.447 911.547 635.739 919.624 658.866C928.067 681.626 932.288 707.323 932.288 735.957C932.288 788.085 918.889 831.586 892.091 866.46C865.293 901.334 833.539 925.563 796.829 939.145C760.119 952.728 714.049 959.519 658.617 959.519C592.172 959.519 537.107 951.81 493.423 936.392C449.738 920.974 417.066 903.353 395.407 883.53Z" fill="white"/>
<path d="M395.407 883.53L397.01 881.779L397.001 881.77L395.407 883.53ZM379.989 837.276L381.939 838.63L381.94 838.628L379.989 837.276ZM408.623 795.977L410.574 797.33L410.575 797.329L408.623 795.977ZM456.529 799.281L455.105 801.18L455.109 801.183L456.529 799.281ZM546.835 852.694L545.866 854.861L545.876 854.865L546.835 852.694ZM799.582 816.351L797.679 814.933L797.674 814.939L799.582 816.351ZM811.697 695.759L809.444 696.51L809.455 696.541L809.465 696.571L811.697 695.759ZM745.619 628.58L746.61 626.423L746.609 626.423L745.619 628.58ZM644.851 592.788L644.156 595.059L644.162 595.06L644.851 592.788ZM528.113 548.737L527.09 550.879L527.099 550.883L528.113 548.737ZM448.82 491.469L447.028 493.026L447.035 493.035L447.043 493.043L448.82 491.469ZM409.724 422.638L407.427 423.239L407.433 423.26L407.439 423.281L409.724 422.638ZM540.778 153.372L540.143 151.084L540.137 151.086L540.778 153.372ZM875.572 202.38L874.189 204.31L874.195 204.314L875.572 202.38ZM888.787 245.33L890.734 246.69L890.741 246.679L890.748 246.669L888.787 245.33ZM860.704 285.527L858.758 284.168L858.757 284.17L860.704 285.527ZM811.146 277.818L809.777 279.758L809.783 279.762L811.146 277.818ZM742.315 240.925L741.362 243.099L741.38 243.107L741.398 243.115L742.315 240.925ZM578.222 235.418L578.995 237.663L579.011 237.658L579.028 237.652L578.222 235.418ZM510.493 382.992L508.175 383.507L508.177 383.514L508.178 383.521L510.493 382.992ZM577.121 454.025L578.056 451.843L578.051 451.841L577.121 454.025ZM684.497 489.267L683.856 491.553L683.867 491.556L683.877 491.558L684.497 489.267ZM812.247 538.274L811.127 540.367L811.131 540.37L812.247 538.274ZM884.933 594.991L883.025 596.404L883.04 596.424L883.055 596.444L884.933 594.991ZM919.624 658.866L917.382 659.649L917.39 659.67L917.398 659.692L919.624 658.866ZM892.091 866.46L890.209 865.013L892.091 866.46ZM397.001 881.77C387.409 873.083 381.597 865.153 379.213 858C376.877 850.993 377.783 844.616 381.939 838.63L378.039 835.922C373.019 843.151 371.905 851.091 374.708 859.502C377.463 867.767 383.95 876.357 393.814 885.29L397.001 881.77ZM381.94 838.628L410.574 797.33L406.672 794.624L378.038 835.923L381.94 838.628ZM410.575 797.329C415.105 790.785 420.806 787.947 427.87 788.434C435.175 788.938 444.225 793.021 455.105 801.18L457.954 797.382C446.808 789.022 436.861 784.295 428.197 783.697C419.292 783.083 412.053 786.852 406.671 794.626L410.575 797.329ZM455.109 801.183C484.241 822.941 514.494 840.836 545.866 854.861L547.804 850.526C516.77 836.652 486.819 818.939 457.95 797.379L455.109 801.183ZM545.876 854.865C577.824 868.982 616.348 875.993 661.37 875.993V871.244C616.82 871.244 578.987 864.305 547.795 850.522L545.876 854.865ZM661.37 875.993C694.633 875.993 722.876 871.005 746.016 860.928L744.12 856.574C721.741 866.32 694.185 871.244 661.37 871.244V875.993ZM746.016 860.928C769.124 850.865 787.639 836.482 801.491 817.763L797.674 814.939C784.36 832.93 766.533 846.814 744.12 856.574L746.016 860.928ZM801.486 817.77C815.781 798.585 822.881 775.493 822.881 748.622H818.133C818.133 774.612 811.283 796.674 797.679 814.933L801.486 817.77ZM822.881 748.622C822.881 729.286 819.906 711.388 813.928 694.948L809.465 696.571C815.235 712.436 818.133 729.779 818.133 748.622H822.881ZM813.949 695.009C808.317 678.111 799.096 663.984 786.286 652.681L783.144 656.241C795.297 666.964 804.064 680.369 809.444 696.51L813.949 695.009ZM786.286 652.681C773.65 641.532 760.426 632.771 746.61 626.423L744.628 630.738C757.978 636.871 770.817 645.364 783.144 656.241L786.286 652.681ZM746.609 626.423C724.067 616.076 690.355 604.108 645.54 590.516L644.162 595.06C688.919 608.634 722.385 620.528 744.629 630.738L746.609 626.423ZM645.545 590.518C601.209 576.961 562.408 562.316 529.128 546.59L527.099 550.883C560.631 566.728 599.654 581.451 644.156 595.059L645.545 590.518ZM529.137 546.594C496.322 530.916 470.169 512.003 450.598 489.896L447.043 493.043C467.118 515.721 493.827 534.986 527.09 550.879L529.137 546.594ZM450.612 489.912C431.337 467.728 418.504 445.088 412.01 421.996L407.439 423.281C414.16 447.178 427.391 470.425 447.028 493.026L450.612 489.912ZM412.021 422.038C405.842 398.412 402.737 371.455 402.737 341.143H397.989C397.989 371.769 401.125 399.142 407.427 423.239L412.021 422.038ZM402.737 341.143C402.737 295.019 416.162 255.357 442.961 222.039L439.261 219.063C411.73 253.291 397.989 294.024 397.989 341.143H402.737ZM442.961 222.039C469.837 188.626 502.647 166.529 541.419 155.658L540.137 151.086C500.351 162.241 466.716 184.93 439.261 219.063L442.961 222.039ZM541.414 155.659C580.855 144.703 620.839 139.227 661.37 139.227V134.478C620.405 134.478 579.994 140.015 540.143 151.084L541.414 155.659ZM661.37 139.227C707.794 139.227 748.081 145.259 782.277 157.264L783.849 152.784C749.031 140.56 708.189 134.478 661.37 134.478V139.227ZM782.277 157.264C816.591 169.311 847.223 184.996 874.189 204.31L876.954 200.449C849.59 180.85 818.549 164.966 783.849 152.784L782.277 157.264ZM874.195 204.314C883.539 210.963 888.939 217.554 890.923 224.002C892.867 230.32 891.656 236.919 886.827 243.991L890.748 246.669C896.197 238.69 897.923 230.605 895.462 222.606C893.04 214.737 886.693 207.379 876.948 200.445L874.195 204.314ZM886.841 243.97L858.758 284.168L862.651 286.887L890.734 246.69L886.841 243.97ZM858.757 284.17C856.888 286.851 854.639 288.637 852.01 289.642C849.361 290.655 846.17 290.934 842.347 290.34C834.629 289.139 824.711 284.434 812.51 275.875L809.783 279.762C822.177 288.456 832.816 293.663 841.617 295.032C846.055 295.722 850.113 295.451 853.705 294.077C857.317 292.697 860.299 290.261 862.652 286.885L858.757 284.17ZM812.515 275.879C793.619 262.54 770.514 250.164 743.233 238.735L741.398 243.115C768.446 254.446 791.229 266.665 809.777 279.758L812.515 275.879ZM743.268 238.75C716.202 226.886 689.264 220.93 662.471 220.93V225.678C688.541 225.678 714.832 231.47 741.362 243.099L743.268 238.75ZM662.471 220.93C628.529 220.93 600.152 224.986 577.417 233.185L579.028 237.652C601.079 229.699 628.867 225.678 662.471 225.678V220.93ZM577.449 233.173C554.597 241.041 536.552 254.561 523.403 273.722L527.318 276.408C539.865 258.125 557.061 245.214 578.995 237.663L577.449 233.173ZM523.403 273.722C510.26 292.872 503.713 315.008 503.713 340.041H508.462C508.462 315.883 514.763 294.702 527.318 276.408L523.403 273.722ZM503.713 340.041C503.713 355.609 505.196 370.101 508.175 383.507L512.81 382.477C509.916 369.452 508.462 355.31 508.462 340.041H503.713ZM508.178 383.521C511.232 396.88 519.013 410.445 531.297 424.219L534.841 421.058C522.897 407.666 515.627 394.8 512.807 382.463L508.178 383.521ZM531.297 424.219C543.652 438.07 558.626 448.735 576.191 456.21L578.051 451.841C561.109 444.631 546.715 434.372 534.841 421.058L531.297 424.219ZM576.186 456.207C599.462 466.183 635.377 477.964 683.856 491.553L685.138 486.981C636.703 473.404 601.034 461.691 578.056 451.843L576.186 456.207ZM683.877 491.558C732.565 504.737 774.974 521.013 811.127 540.367L813.368 536.181C776.836 516.623 734.078 500.227 685.118 486.975L683.877 491.558ZM811.131 540.37C844.748 558.274 868.635 576.978 883.025 596.404L886.841 593.578C871.863 573.358 847.293 554.25 813.363 536.179L811.131 540.37ZM883.055 596.444C897.95 615.698 909.391 636.764 917.382 659.649L921.865 658.083C913.704 634.714 902.017 613.196 886.811 593.538L883.055 596.444ZM917.398 659.692C925.727 682.145 929.914 707.555 929.914 735.957H934.663C934.663 707.091 930.407 681.107 921.849 658.04L917.398 659.692ZM929.914 735.957C929.914 787.662 916.632 830.627 890.209 865.013L893.974 867.907C921.147 832.544 934.663 788.507 934.663 735.957H929.914ZM890.209 865.013C863.648 899.578 832.246 923.51 796.005 936.919L797.653 941.372C834.833 927.616 866.938 903.09 893.974 867.907L890.209 865.013ZM796.005 936.919C759.644 950.372 713.875 957.145 658.617 957.145V961.894C714.222 961.894 760.595 955.084 797.653 941.372L796.005 936.919ZM658.617 957.145C592.334 957.145 537.559 949.452 494.213 934.153L492.632 938.631C536.655 954.168 592.01 961.894 658.617 961.894V957.145ZM494.213 934.153C450.675 918.787 418.337 901.298 397.01 881.779L393.805 885.281C415.795 905.409 448.801 923.161 492.632 938.631L494.213 934.153Z" fill="black" mask="url(#path-1-outside-1_203_9)"/>
<path d="M925.346 797.612L925.331 797.612C923.466 797.588 921.605 797.545 919.752 797.502C907.145 797.209 894.877 796.924 883.825 802.858C877.66 807.626 872.822 812.234 869.231 817.566C865.644 822.891 863.266 828.99 862.103 836.78C861.598 853.221 861.978 865.186 872.507 877.532C886.066 891.39 899.946 893.007 918.86 893.44C936.137 893.698 950.523 894.898 964.942 905.879L965.047 905.959L965.131 906.059C978.538 922.002 980.168 939.788 980.396 959.436L980.396 959.448L980.412 966.834C980.412 966.836 980.412 966.837 980.412 966.838C980.487 975.14 980.556 983.444 980.597 991.748C980.624 997.669 980.66 1003.59 980.704 1009.51C980.83 1025.04 980.941 1040.58 981.027 1056.11C981.117 1072.2 981.227 1088.29 981.346 1104.38C981.603 1139.03 981.829 1173.68 982.029 1208.33L982.036 1209.55L980.819 1209.53C970.684 1209.33 960.551 1209.17 950.417 1209.06C950.416 1209.06 950.416 1209.06 950.415 1209.06L950.428 1207.88C946.271 1207.84 942.115 1207.8 937.959 1207.75L925.346 797.612ZM925.346 797.612L925.361 797.612L933.948 797.501C972.606 797.671 1005.97 811.413 1033.95 838.011C1063.16 867.986 1075.42 901.739 1075.16 943.119V943.127L1075.16 951.836L1076.35 951.836L1075.16 951.837C1075.16 959.662 1075.14 967.487 1075.1 975.314V975.314C1075.08 982.714 1075.07 990.113 1075.07 997.511L1075.06 999.918M925.346 797.612L1083.57 1209.3M1185.01 1289.38C1169.99 1303.43 1157.1 1304.71 1137.26 1304.61M1185.01 1289.38C1193.04 1278.19 1195.57 1269.35 1196 1255.53M1185.01 1289.38L1184.2 1288.51C1184.17 1288.54 1184.14 1288.56 1184.11 1288.59M1185.01 1289.38L1184.05 1288.69C1184.07 1288.65 1184.09 1288.62 1184.11 1288.59M1137.26 1304.61L1077 1208.31L1083.53 1208.12C1093.08 1207.86 1102.62 1207.69 1112.17 1207.56C1116.28 1207.49 1120.4 1207.39 1124.51 1207.27M1137.26 1304.61L1129.36 1304.69M1137.26 1304.61L1129.36 1304.69M1196 1255.53C1195.17 1239.04 1192.97 1230.76 1181.34 1218.81M1196 1255.53L1194.81 1255.49C1194.81 1255.51 1194.81 1255.52 1194.81 1255.54M1196 1255.53L1194.81 1255.59C1194.81 1255.57 1194.81 1255.56 1194.81 1255.54M1181.34 1218.81C1165.77 1206.06 1165.77 1206.06 1124.51 1207.27M1181.34 1218.81L1180.49 1219.63C1180.51 1219.65 1180.52 1219.67 1180.54 1219.68M1181.34 1218.81L1180.59 1219.72C1180.57 1219.71 1180.56 1219.7 1180.54 1219.68M1124.51 1207.27L1124.54 1208.45M1124.51 1207.27L1124.54 1208.45C1124.54 1208.45 1124.54 1208.45 1124.54 1208.45M1124.54 1208.45C1120.43 1208.58 1116.31 1208.67 1112.19 1208.75L1112.18 1208.75C1102.64 1208.88 1093.1 1209.04 1083.57 1209.3M1124.54 1208.45C1145.26 1207.85 1155.39 1207.56 1162.32 1208.96C1169.08 1210.34 1172.76 1213.31 1180.54 1219.68M1083.57 1209.3L1129.35 1303.5L1137.25 1303.42L1137.26 1303.42L1137.27 1303.42C1147.18 1303.47 1155.22 1303.17 1162.63 1301.16C1169.97 1299.16 1176.76 1295.45 1184.11 1288.59M1083.57 1209.3L1083.53 1208.12L1083.57 1209.3M1083.57 1209.3C1083.57 1209.3 1083.57 1209.3 1083.57 1209.3M1083.57 1209.3L1083.57 1209.3M1180.54 1219.68C1186.25 1225.56 1189.58 1230.47 1191.61 1235.88C1193.64 1241.32 1194.4 1247.34 1194.81 1255.54M1194.81 1255.54C1194.6 1262.37 1193.87 1267.9 1192.23 1273.08C1190.59 1278.24 1188.04 1283.11 1184.11 1288.59M1129.36 1304.69C1120.76 1304.75 1112.17 1304.75 1103.57 1304.74M1129.36 1304.69L1129.35 1303.5M1083.57 1209.3L1075.84 1209.53L1074.62 1209.56L1074.62 1208.34C1074.73 1172.03 1074.81 1135.72 1074.86 1099.41C1074.88 1081.75 1074.91 1064.09 1074.96 1046.43C1075.01 1030.92 1075.05 1015.42 1075.06 999.918M1075.06 999.918V999.919L1076.25 999.919L1075.06 999.918ZM1103.57 1304.74L1129.35 1303.5M1103.57 1304.74C1097.58 1304.75 1091.59 1304.78 1085.6 1304.8M1103.57 1304.74L1085.6 1304.8M1129.35 1303.5C1120.76 1303.56 1112.17 1303.56 1103.58 1303.55H1103.57C1097.58 1303.57 1091.58 1303.59 1085.59 1303.61M1129.35 1303.5L1085.59 1303.61M1085.6 1304.8C1073.04 1304.83 1060.49 1304.83 1047.94 1304.81C1033.47 1304.78 1019 1304.84 1004.54 1304.94C990.568 1305.03 976.601 1305.05 962.632 1305.03M1085.6 1304.8L1085.59 1303.61M1085.59 1303.61C1073.04 1303.65 1060.49 1303.65 1047.94 1303.62C1033.47 1303.59 1019 1303.65 1004.53 1303.75C990.565 1303.84 976.601 1303.86 962.634 1303.84H962.632C956.709 1303.84 950.787 1303.87 944.865 1303.92C936.582 1303.98 928.302 1303.94 920.013 1303.89L920 1303.89L919.987 1303.89L912.649 1304C904.184 1303.87 897.329 1302.68 891.012 1300.15C884.709 1297.64 878.876 1293.77 872.476 1288.22C861.977 1275.89 861.599 1263.93 862.103 1247.51C863.889 1235.54 868.308 1227.04 877.123 1218.77C883.512 1214.43 888.849 1211.81 894.459 1210.3C900.099 1208.79 906.087 1208.39 913.805 1208.6L913.817 1208.6L913.829 1208.6L919.664 1208.64L1085.59 1303.61ZM1085.59 1303.61L962.632 1305.03M962.632 1305.03C956.713 1305.03 950.793 1305.06 944.873 1305.1C936.582 1305.16 928.296 1305.13 920.005 1305.08M962.632 1305.03L920.005 1305.08M920.005 1305.08L912.648 1305.19L920.005 1305.08Z" fill="white" stroke="black" stroke-width="2.37416"/>
<path d="M995.897 632.291C1010.82 619.575 1032.67 618.333 1050.97 625.615C1061.97 632.416 1071.29 640.556 1074.64 653.024C1076.84 669.18 1077.3 683.617 1068.75 697.509C1064.05 703.336 1059.79 707.63 1054.91 710.725C1050.03 713.815 1044.48 715.752 1037.14 716.757C1020.39 717.6 1008.38 716.395 995.348 705.905C989.403 700.057 985.945 695.111 983.847 689.634C981.739 684.13 980.967 677.999 980.546 669.694C980.798 661.631 981.855 655.14 984.218 649.253C986.578 643.374 990.271 638.025 995.897 632.291Z" fill="white" stroke="black" stroke-width="2.37416"/>
<path d="M822.569 785.094L926.283 786.458L919.459 883.349L871.014 884.031L822.569 883.349V785.094Z" fill="white"/>
</g>
<defs>
<clipPath id="clip0_203_9">
<rect width="1500" height="1500" fill="white"/>
</clipPath>
</defs>
</svg>
